<?xml version="1.0" standalone="no"?><!DOCTYPE svg PUBLIC "-//W3C//DTD SVG 1.1//EN" "http://www.w3.org/Graphics/SVG/1.1/DTD/svg11.dtd"><svg t="1585999515682" class="icon" viewBox="0 0 1297 1024" version="1.1" xmlns="http://www.w3.org/2000/svg" p-id="2125" xmlns:xlink="http://www.w3.org/1999/xlink" width="136.79296875" height="108"><defs><style type="text/css"></style></defs><path d="M1.324138 887.401931c0 43.961379 114.025931 85.186207 299.48469 107.149241 185.467586 21.971862 413.519448 21.971862 598.298482 0 185.467586-21.971862 299.502345-63.19669 299.502345-107.149241 0-43.970207-114.025931-85.177379-299.502345-107.166897-185.467586-21.98069-413.510621-21.98069-598.298482 0C115.350069 802.233379 1.324138 842.752 1.324138 887.410759" fill="#DDDDDD" p-id="2126"></path><path d="M236.941241 104.333241h356.493242v-28.16c0-35.045517 28.16-63.205517 62.49931-63.205517h259.654621c34.348138 0 62.49931 28.16 62.49931 63.205517v30.216828c26.103172 6.17931 47.404138 30.234483 47.404138 61.131034v289.191725c0 35.027862-28.168828 63.187862-62.516965 63.187862H236.932414c-34.348138 0-62.49931-28.16-62.499311-63.187862V165.464276c-0.008828-32.971034 28.151172-61.131034 62.499311-61.131035" fill="#FFFFFF" p-id="2127"></path><path d="M236.941241 104.333241h356.493242v-28.16c0-35.045517 28.16-63.205517 62.49931-63.205517h259.654621c34.348138 0 62.49931 28.16 62.49931 63.205517v30.216828c26.103172 6.17931 47.404138 30.234483 47.404138 61.131034v289.191725c0 35.027862-28.168828 63.187862-62.516965 63.187862H236.932414c-34.348138 0-62.49931-28.16-62.499311-63.187862V165.464276c-0.008828-32.971034 28.151172-61.131034 62.499311-61.131035" fill="#F6F6F6" p-id="2128"></path><path d="M915.597241 26.014897v-2.056828H653.876966c-28.16 0-51.517793 24.037517-51.517794 52.206345v37.093517H234.866759c-28.16 0-51.508966 24.046345-51.508966 52.215172v289.165242c0 28.177655 24.037517 52.224 51.508966 52.224h726.068965c28.16 0 51.517793-24.046345 51.517793-52.224V165.464276c0-21.98069-15.104-43.272828-36.404965-45.34731l-8.915862-2.048V78.918621c-0.026483-28.848552-23.393103-52.903724-51.544276-52.903724zM236.932414 528.136828c-41.224828 0-73.50731-32.282483-73.507311-71.432828v-289.191724c0-41.216 32.282483-74.178207 73.507311-74.178207h345.511724V76.155586c0-41.207172 32.273655-74.187034 73.498483-74.187034h259.645793c41.207172 0 73.50731 32.29131 73.50731 74.187034v21.98069c28.151172 10.999172 47.377655 37.102345 47.377655 67.328v289.191724c0 41.224828-32.282483 74.195862-73.498482 74.195862H236.932414v-0.715034z" fill="#CCCCCC" p-id="2129"></path><path d="M982.227862 880.534069H219.762759c-30.225655 0-56.32-21.98069-60.451311-48.075035l-56.32-561.213793c-4.122483-35.027862 21.292138-61.139862 56.32-61.139862h881.302069c34.33931 0 60.45131 28.16 56.32 61.139862l-58.394483 561.213793c0.008828 26.774069-26.085517 48.075034-56.311172 48.075035" fill="#FFFFFF" p-id="2130"></path><path d="M159.311448 221.793103c-15.112828 0-26.103172 4.13131-34.33931 15.112828-8.92469 8.915862-13.056 21.98069-10.990345 35.03669l58.376828 559.13931c2.074483 19.923862 24.055172 37.111172 49.452138 37.111172h760.417103c24.046345 0 47.39531-17.18731 49.434483-37.111172l58.412138-561.18731c2.048-13.056-2.074483-26.103172-11.008-35.045518-8.915862-10.990345-21.292138-15.095172-34.339311-15.095172H159.302621v2.039172z m822.916414 669.731311H219.762759c-34.33931 0-66.630621-26.103172-71.432828-56.32L91.983448 273.999448c-2.048-19.226483 4.140138-37.093517 17.187311-52.206345 13.056-15.121655 30.234483-21.98069 51.508965-21.980689h881.302069c19.23531 0 39.159172 8.933517 51.517793 21.980689 13.064828 13.056 17.178483 32.282483 17.178483 52.206345l-58.376828 561.204966c-2.78069 30.225655-35.751724 56.328828-70.082207 56.328827z" fill="#CCCCCC" p-id="2131"></path><path d="M982.227862 880.534069H219.762759c-30.225655 0-56.32-21.98069-60.451311-48.075035l-56.32-561.213793c-4.122483-35.027862 21.292138-61.139862 56.32-61.139862h881.302069c34.33931 0 60.45131 28.16 56.32 61.139862l-58.394483 561.213793c0.008828 26.774069-26.085517 48.075034-56.311172 48.075035" fill="#F6F6F6" p-id="2132"></path><path d="M1142.263172 1022.022621c-6.161655 0-13.047172-6.17931-13.047172-13.056v-69.367173c0-6.17931 6.196966-13.047172 13.047172-13.047172 6.17931 0 13.056 6.170483 13.056 13.047172v69.367173c-2.048 8.951172-6.87669 13.056-13.064827 13.056zM159.311448 221.793103c-15.112828 0-26.103172 4.13131-34.33931 15.112828-8.92469 8.915862-13.056 21.98069-10.990345 35.03669l58.376828 559.13931c2.074483 19.244138 24.055172 37.111172 49.452138 37.111172h760.417103c24.046345 0 47.39531-17.18731 49.434483-37.111172l58.412138-561.196138c2.048-13.047172-2.074483-26.103172-11.008-35.027862-8.915862-10.999172-21.292138-15.104-34.339311-15.104H159.302621v2.039172z m822.916414 669.731311H219.762759c-34.33931 0-66.630621-26.103172-71.432828-56.32L91.983448 273.999448c-2.048-19.226483 4.140138-37.093517 17.187311-52.206345 13.056-15.121655 30.234483-21.98069 51.508965-21.980689h881.302069c19.23531 0 39.159172 8.933517 51.517793 21.980689 13.064828 13.047172 17.178483 32.282483 17.178483 52.206345l-58.376828 561.204966c-2.78069 30.225655-35.751724 56.328828-70.082207 56.328827z" fill="#CCCCCC" p-id="2133"></path><path d="M1187.601655 976.701793c0 6.17931-6.17931 13.064828-13.047172 13.064828h-69.376c-6.17931 0-13.047172-6.196966-13.047173-13.064828 0-6.17931 6.196966-13.056 13.047173-13.056h69.384827c6.17931 0 13.038345 6.17931 13.038345 13.056M102.991448 108.446897c-6.17931 0-13.047172-6.17931-13.047172-13.047173V26.041379c0-6.196966 6.17931-13.064828 13.047172-13.064827 6.885517 0 13.056 6.188138 13.056 13.064827v69.358345c-2.065655 6.867862-6.17931 13.047172-13.056 13.047173" fill="#CCCCCC" p-id="2134"></path><path d="M148.329931 61.060414c0 6.17931-6.188138 13.047172-13.056 13.047172H68.64331c-6.17931 0-13.047172-6.17931-13.047172-13.047172 0-6.188138 6.17931-13.056 13.047172-13.056h69.367173c6.188138 0 10.319448 6.17931 10.319448 13.056m1145.061517 204.005517c0 6.17931-4.113655 10.990345-10.990345 10.990345h-43.264c-6.196966 0-10.999172-4.113655-10.999172-10.990345 0-6.17931 4.122483-10.999172 10.999172-10.999172h43.264c4.802207-0.008828 10.990345 6.867862 10.990345 10.999172m-92.733793 0c0 6.17931-4.122483 10.990345-10.999172 10.990345h-43.255173c-6.196966 0-10.990345-4.113655-10.990344-10.990345 0-6.17931 4.104828-10.999172 10.981517-10.999172h43.264c6.17931-0.008828 10.999172 6.867862 10.999172 10.999172m15.104 78.309517c-6.17931 0-10.981517-4.13131-10.981517-10.990345V289.103448c0-6.188138 4.113655-10.990345 10.981517-10.990345 6.885517 0 10.999172 4.113655 10.999173 10.990345v43.272828c-2.754207 6.859034-6.859034 10.990345-10.999173 10.990345m0-93.431173c-6.17931 0-10.981517-4.113655-10.981517-10.981517v-43.281655c0-6.17931 4.113655-10.981517 10.981517-10.981517 6.885517 0 10.999172 4.122483 10.999173 10.981517v43.281655c-2.754207 6.867862-6.859034 10.981517-10.999173 10.981517" fill="#CCCCCC" p-id="2135"></path><path d="M374.995862 397.629793c0 9.622069 4.819862 17.858207 13.038345 22.651586 8.033103 4.82869 18.070069 4.82869 26.103172 0a25.661793 25.661793 0 0 0 13.064828-22.651586c0-9.622069-4.819862-17.858207-13.064828-22.669241a25.396966 25.396966 0 0 0-26.103172 0c-7.538759 4.811034-13.038345 13.744552-13.038345 22.669241z" fill="#FFFFFF" p-id="2136"></path><path d="M401.099034 382.525793c-8.915862 0-15.112828 6.17931-15.112827 15.112828s6.17931 15.112828 15.112827 15.112827c8.92469 0 15.121655-6.17931 15.121656-15.112827 0-8.236138-6.17931-15.112828-15.121656-15.112828m0 52.197517c-19.226483 0-36.396138-17.178483-36.396137-37.102344 0-19.226483 17.178483-37.102345 36.396137-37.102345 19.226483 0 36.404966 17.178483 36.404966 37.102345 0.688552 19.93269-17.169655 37.102345-36.404966 37.102344" fill="#CCCCCC" p-id="2137"></path><path d="M774.770759 397.629793a26.112 26.112 0 1 0 52.224 0 26.112 26.112 0 0 0-52.224 0z" fill="#FFFFFF" p-id="2138"></path><path d="M800.873931 382.525793c-8.92469 0-15.112828 6.17931-15.112828 15.112828s6.17931 15.112828 15.112828 15.112827 15.112828-6.17931 15.112828-15.112827c0-8.236138-6.17931-15.112828-15.112828-15.112828m0 52.197517c-19.226483 0-36.396138-17.178483-36.396138-37.102344 0-19.226483 17.178483-37.102345 36.396138-37.102345 19.244138 0 36.404966 17.178483 36.404966 37.102345 0.017655 19.93269-15.121655 37.102345-36.404966 37.102344M611.981241 676.528552c-8.915862 0-15.112828 6.17931-15.112827 15.095172 0 8.92469 6.17931 15.112828 15.112827 15.112828s15.112828-6.17931 15.112828-15.112828c0-8.915862-6.17931-15.095172-15.112828-15.095172m0 52.197517c-19.244138 0-36.404966-17.18731-36.404965-37.12 0-19.226483 17.18731-37.093517 36.404965-37.093517 19.244138 0 36.396138 17.178483 36.396138 37.093517 0 19.270621-15.095172 37.12-36.396138 37.12" fill="#CCCCCC" p-id="2139"></path></svg>