<?xml version="1.0" standalone="no"?><!DOCTYPE svg PUBLIC "-//W3C//DTD SVG 1.1//EN" "http://www.w3.org/Graphics/SVG/1.1/DTD/svg11.dtd"><svg t="1586022204490" class="icon" viewBox="0 0 1024 1024" version="1.1" xmlns="http://www.w3.org/2000/svg" p-id="8596" width="150" height="150" xmlns:xlink="http://www.w3.org/1999/xlink"><defs><style type="text/css"></style></defs><path d="M769.6 864.8v7.6c-1.7 8.4-12.2 22.4-22.4 22.4H259.5c-12.2 0-28.3-8.4-28.3-20.7l-1.7-1.7-1.7-6.8c-51.5 6.8-73.8 13.9-73 23.2 5.9 38.8 156.9 37.1 350.2 37.1 193.2 0 339.2 4.2 350.2-37.1 2.9-8-30-17.3-85.6-24z m0 0" p-id="8597" fill="#bfbfbf"></path><path d="M318.2 384.7h370v77.2h-370v-77.2z m0 236.2h370v17.3h-370v-17.3z m0 92h370v17.3h-370v-17.3z m0 92.4h370v17.3h-370v-17.3z m-43.1-674.6h-33.3V97.8h-24.9v32.9H184v24.9h32.9v33.3h24.9v-33.3h33.3v-24.9z m-108 282.2h-24.9V388h-8v24.9h-24.9v8h24.9v24.9h8v-24.9h24.9v-8z m746.7-83.1h-33.3v-32.9h-8v32.9h-33.3v8.4h33.3v33.3h8v-33.3h33.3v-8.4z m0 0" p-id="8598" fill="#bfbfbf"></path><path d="M251.9 895.5c-14.8 0-27.4-12.2-27.4-27.4V267c0-14.8 12.2-26.6 27.4-27.4h425.7l92.8 92V869c0 14.8-12.2 27.4-27.4 27.4H251.9v-0.9z m0-647.5c-10.1 0-19 8.4-19 19v602c0 10.1 8.4 19 19 19h491.9c10.1 0 19-8.4 19-19V335.7L674.2 248H251.9z m0 0" p-id="8599" fill="#bfbfbf"></path><path d="M689.8 345c-9.3 0-18.1-8.4-18.1-18.1v-87.3h11.8l86.9 93.7V345h-80.6z m-10.5-98.7v81.4c0 4.2 5.9 10.1 10.1 10.1h73.8s0 0.8-0.8 0.8l-83.1-92.3zM318.2 528.9h370v17.3h-370v-17.3z m0 0" p-id="8600" fill="#bfbfbf"></path></svg>